# Blender 3.6.4
# www.blender.org
mtllib weapon_spawner.mtl
o Cylinder
v 0.000000 -0.094697 -1.000000
v 0.000000 0.225303 -0.815339
v 0.707107 -0.094697 -0.707107
v 0.576532 0.225303 -0.576532
v 1.000000 -0.094697 0.000000
v 0.815339 0.225303 0.000000
v 0.707107 -0.094697 0.707107
v 0.576532 0.225303 0.576532
v 0.000000 -0.094697 1.000000
v 0.000000 0.225303 0.815339
v -0.707107 -0.094697 0.707107
v -0.576532 0.225303 0.576532
v -1.000000 -0.094697 0.000000
v -0.815339 0.225303 0.000000
v -0.707107 -0.094697 -0.707107
v -0.576532 0.225303 -0.576532
v 0.707107 0.225303 -0.707107
v 0.000000 0.225303 -1.000000
v 1.000000 0.225303 0.000000
v 0.707107 0.225303 0.707107
v 0.000000 0.225303 1.000000
v -0.707107 0.225303 0.707107
v -1.000000 0.225303 0.000000
v -0.707107 0.225303 -0.707107
v 0.423132 0.146988 -0.423132
v 0.000000 0.146988 -0.598399
v 0.598399 0.146988 0.000000
v 0.423132 0.146988 0.423132
v 0.000000 0.146988 0.598399
v -0.423132 0.146988 0.423132
v -0.598399 0.146988 0.000000
v -0.423132 0.146988 -0.423132
v 0.576532 0.146988 -0.576532
v 0.000000 0.146988 -0.815339
v 0.815339 0.146988 0.000000
v 0.576532 0.146988 0.576532
v 0.000000 0.146988 0.815339
v -0.576532 0.146988 0.576532
v -0.815339 0.146988 0.000000
v -0.576532 0.146988 -0.576532
v 0.423132 0.465481 -0.423132
v 0.000000 0.465481 -0.598399
v 0.598399 0.465481 0.000000
v 0.423132 0.465481 0.423132
v 0.000000 0.465481 0.598399
v -0.423132 0.465481 0.423132
v -0.598399 0.465481 0.000000
v -0.423132 0.465481 -0.423132
v 0.625102 0.225303 -0.566870
v 0.842852 0.225303 -0.041176
v 0.938375 0.225303 -0.041176
v 0.692648 0.225303 -0.634416
v 0.842852 0.225303 0.041176
v 0.625102 0.225303 0.566870
v 0.692648 0.225303 0.634416
v 0.938375 0.225303 0.041176
v -0.625102 0.225303 0.566870
v -0.842852 0.225303 0.041176
v -0.938375 0.225303 0.041176
v -0.692648 0.225303 0.634416
v -0.842852 0.225303 -0.041176
v -0.625102 0.225303 -0.566870
v -0.692648 0.225303 -0.634416
v -0.938375 0.225303 -0.041176
v 0.692648 0.352837 -0.634416
v 0.938375 0.352837 -0.041176
v 0.938375 0.352837 0.041176
v 0.692648 0.352837 0.634416
v -0.692648 0.352837 0.634416
v -0.938375 0.352837 0.041176
v -0.938375 0.352837 -0.041176
v -0.692648 0.352837 -0.634416
v 0.902941 0.414554 -0.041176
v 0.842852 0.405521 -0.041176
v 0.625102 0.405521 -0.566870
v 0.667592 0.414554 -0.609360
v 0.667592 0.414554 0.609360
v 0.625102 0.405521 0.566870
v 0.842852 0.405521 0.041176
v 0.902941 0.414554 0.041176
v -0.902941 0.414554 0.041176
v -0.842852 0.405521 0.041176
v -0.625102 0.405521 0.566870
v -0.667592 0.414554 0.609360
v -0.667592 0.414554 -0.609360
v -0.625102 0.405521 -0.566870
v -0.842852 0.405521 -0.041176
v -0.902941 0.414554 -0.041176
v 0.474569 0.146988 -0.412901
v 0.627536 0.146988 -0.043606
v 0.750078 0.146988 -0.043606
v 0.561219 0.146988 -0.499551
v 0.627536 0.146988 0.043606
v 0.474569 0.146988 0.412901
v 0.561219 0.146988 0.499551
v 0.750078 0.146988 0.043606
v -0.474569 0.146988 0.412901
v -0.627536 0.146988 0.043606
v -0.750078 0.146988 0.043606
v -0.561219 0.146988 0.499551
v -0.627536 0.146988 -0.043606
v -0.474569 0.146988 -0.412901
v -0.561219 0.146988 -0.499551
v -0.750078 0.146988 -0.043606
v -0.296193 0.609782 -0.296193
v -0.418880 0.609782 -0.000000
v 0.561219 0.442858 -0.499551
v 0.750078 0.442858 -0.043606
v -0.296193 0.609782 0.296193
v 0.000000 0.609782 0.418880
v 0.750078 0.442858 0.043606
v 0.561219 0.442858 0.499551
v 0.296193 0.609782 0.296193
v 0.418880 0.609782 -0.000000
v -0.561219 0.442858 0.499551
v -0.750078 0.442858 0.043606
v 0.000000 0.609782 -0.418880
v 0.296193 0.609782 -0.296193
v -0.750078 0.442858 -0.043606
v -0.561219 0.442858 -0.499551
v 0.685915 0.528515 -0.043606
v 0.627536 0.517368 -0.043606
v 0.474569 0.517368 -0.412901
v 0.515850 0.528515 -0.454181
v 0.515850 0.528515 0.454181
v 0.474569 0.517368 0.412901
v 0.627536 0.517368 0.043606
v 0.685915 0.528515 0.043606
v -0.685915 0.528515 0.043606
v -0.627536 0.517368 0.043606
v -0.474569 0.517368 0.412901
v -0.515850 0.528515 0.454181
v -0.515850 0.528515 -0.454181
v -0.474569 0.517368 -0.412901
v -0.627536 0.517368 -0.043606
v -0.685915 0.528515 -0.043606
v 0.576532 0.354157 -0.576532
v 0.000000 0.354157 -0.815339
v 0.000000 0.354157 0.815339
v 0.576532 0.354157 0.576532
v -0.576532 0.354157 0.576532
v -0.576532 0.354157 -0.576532
v 0.423132 0.354157 -0.423132
v 0.000000 0.354157 -0.598399
v 0.000000 0.354157 0.598399
v 0.423132 0.354157 0.423132
v -0.423132 0.354157 0.423132
v -0.423132 0.354157 -0.423132
vn 0.3827 -0.0000 -0.9239
vn 0.9239 -0.0000 -0.3827
vn 0.9239 -0.0000 0.3827
vn 0.3827 -0.0000 0.9239
vn -0.3827 -0.0000 0.9239
vn -0.9239 -0.0000 0.3827
vn -0.9239 -0.0000 -0.3827
vn -0.3827 -0.0000 -0.9239
vn -0.0000 -1.0000 -0.0000
vn -0.0000 1.0000 -0.0000
vn 0.7071 -0.0000 0.7071
vn 0.8162 0.4686 0.3381
vn -0.0000 -0.0000 -1.0000
vn -0.7071 -0.0000 -0.7071
vn 0.7597 0.5691 0.3147
vn -0.2512 0.7544 0.6064
vn -0.0000 -0.0000 1.0000
vn -0.7071 -0.0000 0.7071
vn 0.7071 -0.0000 -0.7071
vn -0.8162 0.4686 0.3381
vn -0.8162 0.4686 -0.3381
vn -0.1484 0.9870 0.0615
vn -0.1484 0.9870 -0.0615
vn 0.1484 0.9870 -0.0615
vn 0.1484 0.9870 0.0615
vn 0.8162 0.4686 -0.3381
vn -0.7597 0.5691 0.3147
vn -0.7597 0.5691 -0.3147
vn -0.1870 0.9793 0.0775
vn -0.1870 0.9793 -0.0775
vn 0.1870 0.9793 -0.0775
vn 0.1870 0.9793 0.0775
vn 0.7597 0.5691 -0.3147
vn 0.6064 0.7544 0.2512
vn 0.2512 0.7544 -0.6064
vn -0.2512 0.7544 -0.6064
vn -0.6064 0.7544 0.2512
vn 0.2512 0.7544 0.6064
vn 0.6064 0.7544 -0.2512
vn -0.6064 0.7544 -0.2512
vt 0.521800 0.309982
vt 0.444773 0.309982
vt 0.444773 0.125853
vt 0.521800 0.125853
vt 0.444773 0.000000
vt 0.521800 0.000000
vt 0.694705 0.339913
vt 0.617678 0.339913
vt 0.617678 0.166132
vt 0.694705 0.166132
vt 0.617678 0.000000
vt 0.694705 -0.000000
vt 0.598827 0.419546
vt 0.521800 0.419546
vt 0.521800 0.253414
vt 0.598827 0.253414
vt 0.521800 0.079633
vt 0.598827 0.079633
vt 0.617678 -0.000000
vt 0.617678 0.102613
vt 0.598827 0.102613
vt 0.598827 -0.000000
vt 0.521800 0.000000
vt 0.598827 0.000000
vt 0.521800 0.444525
vt 0.444773 0.444525
vt 0.444773 0.314502
vt 0.314502 0.444773
vt 0.130271 0.444773
vt -0.000000 0.314502
vt -0.000000 0.130271
vt 0.130271 -0.000000
vt 0.314502 -0.000000
vt 0.444773 0.130271
vt 0.041066 0.742264
vt 0.147281 0.848479
vt 0.130271 0.889545
vt -0.000000 0.759274
vt 0.767532 0.323108
vt 0.744572 0.323108
vt 0.744572 0.279727
vt 0.759015 0.277553
vt 0.767532 0.292409
vt 0.920766 0.345608
vt 0.920766 0.485247
vt 0.905910 0.485710
vt 0.905910 0.339913
vt 0.403707 0.742264
vt 0.403707 0.592054
vt 0.444773 0.575044
vt 0.444773 0.759274
vt 0.297492 0.485839
vt 0.314502 0.444773
vt 0.789056 0.323108
vt 0.767532 0.323108
vt 0.767532 0.279727
vt 0.781072 0.277553
vt 0.789056 0.292409
vt 0.942441 0.009503
vt 0.942441 0.000000
vt 0.985821 0.000000
vt 0.987995 0.005978
vt 0.973139 0.009503
vt 0.041066 0.592054
vt -0.000000 0.575044
vt 0.942441 0.000000
vt 0.942441 0.047652
vt 0.865777 0.047652
vt 0.865777 0.000000
vt 0.617678 0.252740
vt 0.617678 0.362439
vt 0.598827 0.362439
vt 0.598827 0.252740
vt 0.636529 0.404841
vt 0.636529 0.546531
vt 0.617678 0.546531
vt 0.617678 0.404841
vt 0.444773 0.586216
vt 0.444773 0.444525
vt 0.463624 0.444525
vt 0.463624 0.586216
vt 0.636529 0.339913
vt 0.617678 0.339913
vt 0.636529 0.681985
vt 0.617678 0.681985
vt 0.444773 0.721670
vt 0.463624 0.721670
vt 0.970634 0.339913
vt 0.970634 0.475366
vt 0.920766 0.475366
vt 0.920766 0.339913
vt 0.971894 0.206927
vt 0.942441 0.206927
vt 0.942441 0.117773
vt 0.956473 0.115090
vt 0.971894 0.135708
vt 0.636529 0.985360
vt 0.636529 0.884456
vt 0.657147 0.883618
vt 0.657147 0.995673
vt 0.463624 0.576289
vt 0.463624 0.466107
vt 0.513491 0.466107
vt 0.513491 0.576289
vt 0.870070 0.883618
vt 0.870070 0.983031
vt 0.820203 0.983031
vt 0.820203 0.883618
vt 0.970054 0.298764
vt 0.942441 0.298764
vt 0.942441 0.209610
vt 0.955596 0.206927
vt 0.970054 0.227545
vt 0.233542 0.901736
vt 0.233542 0.889545
vt 0.322695 0.889545
vt 0.325379 0.895353
vt 0.304760 0.901736
vt 0.141704 0.889545
vt 0.141704 0.988958
vt 0.091837 0.988958
vt 0.091837 0.889545
vt 0.636529 0.805664
vt 0.636529 0.695420
vt 0.676452 0.711957
vt 0.676452 0.789127
vt 0.942441 0.151643
vt 0.942441 0.251056
vt 0.865777 0.251056
vt 0.865777 0.151643
vt 0.598464 0.796512
vt 0.598464 0.900502
vt 0.521800 0.900502
vt 0.521800 0.796512
vt 0.789112 0.190693
vt 0.789112 0.080511
vt 0.865777 0.080511
vt 0.865777 0.190693
vt 0.789112 0.000000
vt 0.865777 0.000000
vt 0.598464 0.697099
vt 0.521800 0.697099
vt 0.789112 0.266004
vt 0.865777 0.266004
vt 0.297492 0.848479
vt 0.290869 0.858391
vt 0.153904 0.858391
vt 0.314502 0.889545
vt 0.299668 0.879634
vt 0.145104 0.879634
vt 0.406032 0.753956
vt 0.309183 0.850805
vt 0.427275 0.762755
vt 0.317982 0.872048
vt 0.147281 0.485839
vt 0.153904 0.475927
vt 0.290869 0.475927
vt 0.130271 0.444773
vt 0.145104 0.454684
vt 0.299668 0.454684
vt 0.038740 0.580362
vt 0.135590 0.483513
vt 0.017497 0.571563
vt 0.126790 0.462270
vt 0.614179 0.407993
vt 0.598827 0.407993
vt 0.598827 0.377295
vt 0.604522 0.362439
vt 0.614179 0.364613
vt 0.865777 0.274015
vt 0.865777 0.251056
vt 0.896475 0.251056
vt 0.911331 0.259573
vt 0.909157 0.274015
vt 0.444795 0.873911
vt 0.444795 0.852387
vt 0.475494 0.852387
vt 0.490350 0.860371
vt 0.488175 0.873911
vt 0.861398 0.311558
vt 0.840460 0.311558
vt 0.840460 0.280860
vt 0.848227 0.266004
vt 0.861398 0.268178
vt 0.948235 0.617929
vt 0.948235 0.757568
vt 0.933379 0.763263
vt 0.933379 0.617466
vt 0.606344 0.700363
vt 0.606344 0.848398
vt 0.598464 0.851662
vt 0.598464 0.697099
vt 0.918592 0.485710
vt 0.918592 0.614907
vt 0.875212 0.614907
vt 0.875212 0.485710
vt 0.902680 0.892460
vt 0.902680 0.763263
vt 0.946061 0.763263
vt 0.946061 0.892460
vt 0.865777 0.333218
vt 0.909157 0.333218
vt 0.942441 0.115090
vt 0.973139 0.115090
vt 0.444795 0.967476
vt 0.488175 0.967476
vt 0.875212 0.485710
vt 0.875212 0.339913
vt 0.902680 0.907812
vt 0.948235 0.902117
vt 0.933379 0.907812
vt 0.902680 0.763263
vt 0.902680 0.617466
vt 0.942030 0.251056
vt 0.942030 0.317865
vt 0.911331 0.317865
vt 0.911331 0.251056
vt 0.476987 0.704351
vt 0.476987 0.852386
vt 0.463624 0.846851
vt 0.463624 0.709886
vt 0.636529 0.681985
vt 0.636529 0.830020
vt 0.623166 0.824485
vt 0.623166 0.687520
vt 0.476987 0.852387
vt 0.476987 0.704351
vt 0.490350 0.709886
vt 0.490350 0.846851
vt 0.619707 0.705898
vt 0.619707 0.842863
vt 0.987995 0.107105
vt 0.694705 0.240628
vt 0.736893 0.138777
vt 0.743906 0.149273
vt 0.707086 0.238166
vt 0.789112 0.138777
vt 0.773403 0.149273
vt 0.731629 0.277553
vt 0.727943 0.259023
vt 0.694705 0.036925
vt 0.707086 0.039387
vt 0.743906 0.128280
vt 0.731629 0.000000
vt 0.727943 0.018530
vt 0.773403 0.128280
vt 0.825344 0.376838
vt 0.783156 0.478689
vt 0.776142 0.468193
vt 0.812963 0.379300
vt 0.730937 0.478689
vt 0.746646 0.468193
vt 0.788420 0.339913
vt 0.792105 0.358443
vt 0.825344 0.580541
vt 0.812963 0.578079
vt 0.776142 0.489186
vt 0.788420 0.617466
vt 0.792105 0.598936
vt 0.746646 0.489186
vt 0.967930 0.801140
vt 0.948235 0.801140
vt 0.948235 0.729922
vt 0.958547 0.709303
vt 0.967930 0.711986
vt 0.354832 0.981383
vt 0.325379 0.981383
vt 0.325379 0.910164
vt 0.340800 0.889545
vt 0.354832 0.892229
vt 0.141704 0.917158
vt 0.141704 0.889546
vt 0.212923 0.889546
vt 0.233542 0.904004
vt 0.230858 0.917158
vt 0.975095 0.709303
vt 0.948235 0.709303
vt 0.948235 0.638084
vt 0.962299 0.617466
vt 0.975095 0.620149
vt 0.728366 0.994835
vt 0.728366 0.893930
vt 0.748984 0.883618
vt 0.748984 0.995673
vt 0.504619 0.710261
vt 0.504619 0.817233
vt 0.490350 0.823144
vt 0.490350 0.704351
vt 0.610954 0.900502
vt 0.610954 0.991262
vt 0.521800 0.991262
vt 0.521800 0.900502
vt -0.000000 0.980305
vt 0.000000 0.889545
vt 0.089154 0.889545
vt 0.089154 0.980305
vt 0.396421 0.981382
vt 0.396421 0.892229
vt 0.862758 0.711957
vt 0.862758 0.789127
vt 0.808190 0.843695
vt 0.731019 0.843695
vt 0.731019 0.657389
vt 0.808190 0.657389
vt 0.233542 0.982887
vt 0.304760 0.982887
vt 0.141704 0.982887
vt 0.230858 0.982887
vt 0.728366 0.883618
vt 0.728366 0.995673
vt -0.000000 1.000000
vt 0.091837 0.989688
vt 0.071219 1.000000
vt 0.820203 0.995673
vt 0.840460 0.337222
vt 0.789112 0.337222
vt 0.789112 0.266004
vt 0.840460 0.266004
vt 0.503332 0.829054
vt 0.503332 0.936026
vt 0.490350 0.930648
vt 0.490350 0.834431
vt 0.636148 0.830020
vt 0.636148 0.936992
vt 0.623166 0.931615
vt 0.623166 0.835398
vt 0.444773 0.828642
vt 0.444773 0.721670
vt 0.457756 0.727047
vt 0.457756 0.823264
vt 0.517601 0.715639
vt 0.517601 0.811856
vt 0.517601 0.823144
vt 0.517601 0.941936
vt 0.714483 0.617466
vt 0.824726 0.617466
vt 0.902680 0.695420
vt 0.902680 0.805664
vt 0.824726 0.883618
vt 0.714483 0.883618
vt 0.574019 0.558322
vt 0.616207 0.660174
vt 0.579283 0.697099
vt 0.521800 0.558322
vt 0.730937 0.376838
vt 0.688748 0.478689
vt 0.636529 0.478689
vt 0.694012 0.339913
vt 0.730937 0.580541
vt 0.694012 0.617466
vt 0.616207 0.456470
vt 0.579283 0.419545
vt 0.463624 0.704351
vt 0.463624 0.656800
vt 0.513491 0.656800
vt 0.513491 0.704351
vt 0.825344 0.599739
vt 0.825344 0.449611
vt 0.875212 0.449611
vt 0.875212 0.599739
vt 0.825344 0.339913
vt 0.744572 0.277553
vt 0.744572 0.329695
vt 0.694705 0.329695
vt 0.694705 0.277553
vt 0.970634 0.475367
vt 0.970634 0.610820
vt 0.920766 0.610820
vt 0.920766 0.475367
vt 0.952548 0.907813
vt 0.952548 0.959955
vt 0.902681 0.959955
vt 0.902681 0.907813
vt 0.463624 0.444525
vt 0.513491 0.444525
s 0
usemtl Material.001
f 1/1/1 18/2/1 17/3/1 3/4/1
f 3/4/2 17/3/2 19/5/2 5/6/2
f 5/7/3 19/8/3 20/9/3 7/10/3
f 7/10/4 20/9/4 21/11/4 9/12/4
f 9/13/5 21/14/5 22/15/5 11/16/5
f 11/16/6 22/15/6 23/17/6 13/18/6
f 14/19/2 12/20/2 38/21/2 39/22/2
f 13/18/7 23/17/7 24/23/7 15/24/7
f 15/25/8 24/26/8 18/2/8 1/1/8
f 1/27/9 3/28/9 5/29/9 7/30/9 9/31/9 11/32/9 13/33/9 15/34/9
f 2/35/10 4/36/10 17/37/10 18/38/10
f 60/39/11 57/40/11 83/41/11 84/42/11 69/43/11
f 80/44/12 77/45/12 68/46/12 67/47/12
f 8/48/10 10/49/10 21/50/10 20/51/10
f 10/49/10 12/52/10 22/53/10 21/50/10
f 56/54/13 53/55/13 79/56/13 80/57/13 67/58/13
f 52/59/14 49/60/14 75/61/14 76/62/14 65/63/14
f 16/64/10 2/35/10 18/38/10 24/65/10
f 32/66/7 31/67/7 47/68/7 48/69/7
f 10/70/8 8/71/8 36/72/8 37/73/8
f 6/74/6 4/75/6 33/76/6 35/77/6
f 16/78/3 14/79/3 39/80/3 40/81/3
f 12/20/1 10/70/1 37/73/1 38/21/1
f 8/82/7 6/74/7 35/77/7 36/83/7
f 4/75/5 2/84/5 34/85/5 33/76/5
f 2/86/4 16/78/4 40/81/4 34/87/4
f 37/88/4 36/89/4 140/90/4 139/91/4
f 100/92/11 97/93/11 131/94/11 132/95/11 115/96/11
f 128/97/15 125/98/15 112/99/15 111/100/15
f 29/101/1 30/102/1 147/103/1 145/104/1
f 32/105/4 26/106/4 144/107/4 148/108/4
f 96/109/13 93/110/13 127/111/13 128/112/13 111/113/13
f 92/114/14 89/115/14 123/116/14 124/117/14 107/118/14
f 26/119/5 25/120/5 143/121/5 144/122/5
f 46/123/16 45/124/16 110/125/16 109/126/16
f 30/127/5 29/128/5 45/129/5 46/130/5
f 28/131/3 27/132/3 43/133/3 44/134/3
f 25/135/1 26/136/1 42/137/1 41/138/1
f 26/136/8 32/139/8 48/140/8 42/137/8
f 31/67/6 30/127/6 46/130/6 47/68/6
f 29/141/4 28/131/4 44/134/4 45/142/4
f 27/143/2 25/135/2 41/138/2 43/144/2
f 4/36/10 6/145/10 50/146/10 49/147/10
f 6/145/10 19/148/10 51/149/10 50/146/10
f 19/148/10 17/37/10 52/150/10 51/149/10
f 17/37/10 4/36/10 49/147/10 52/150/10
f 6/145/10 8/48/10 54/151/10 53/152/10
f 8/48/10 20/51/10 55/153/10 54/151/10
f 20/51/10 19/148/10 56/154/10 55/153/10
f 19/148/10 6/145/10 53/152/10 56/154/10
f 12/52/10 14/155/10 58/156/10 57/157/10
f 14/155/10 23/158/10 59/159/10 58/156/10
f 23/158/10 22/53/10 60/160/10 59/159/10
f 22/53/10 12/52/10 57/157/10 60/160/10
f 14/155/10 16/64/10 62/161/10 61/162/10
f 16/64/10 24/65/10 63/163/10 62/161/10
f 24/65/10 23/158/10 64/164/10 63/163/10
f 23/158/10 14/155/10 61/162/10 64/164/10
f 50/165/17 51/166/17 66/167/17 73/168/17 74/169/17
f 54/170/18 55/171/18 68/172/18 77/173/18 78/174/18
f 58/175/13 59/176/13 70/177/13 81/178/13 82/179/13
f 62/180/19 63/181/19 72/182/19 85/183/19 86/184/19
f 84/185/20 81/186/20 70/187/20 69/188/20
f 88/189/21 85/190/21 72/191/21 71/192/21
f 49/193/6 50/194/6 74/195/6 75/196/6
f 61/197/3 62/198/3 86/199/3 87/200/3
f 53/201/7 54/170/7 78/174/7 79/202/7
f 51/203/2 52/59/2 65/63/2 66/204/2
f 57/205/2 58/175/2 82/179/2 83/206/2
f 55/207/3 56/208/3 67/47/3 68/46/3
f 64/209/17 61/197/17 87/200/17 88/210/17 71/211/17
f 59/212/6 60/213/6 69/188/6 70/187/6
f 63/214/7 64/215/7 71/216/7 72/217/7
f 73/218/22 76/219/22 75/220/22 74/221/22
f 77/222/23 80/223/23 79/224/23 78/225/23
f 81/226/24 84/227/24 83/228/24 82/229/24
f 85/190/25 88/189/25 87/230/25 86/231/25
f 76/62/26 73/232/26 66/204/26 65/63/26
f 25/233/10 27/234/10 90/235/10 89/236/10
f 27/234/10 35/237/10 91/238/10 90/235/10
f 35/237/10 33/239/10 92/240/10 91/238/10
f 33/239/10 25/233/10 89/236/10 92/240/10
f 27/234/10 28/241/10 94/242/10 93/243/10
f 28/241/10 36/244/10 95/245/10 94/242/10
f 36/244/10 35/237/10 96/246/10 95/245/10
f 35/237/10 27/234/10 93/243/10 96/246/10
f 30/247/10 31/248/10 98/249/10 97/250/10
f 31/248/10 39/251/10 99/252/10 98/249/10
f 39/251/10 38/253/10 100/254/10 99/252/10
f 38/253/10 30/247/10 97/250/10 100/254/10
f 31/248/10 32/255/10 102/256/10 101/257/10
f 32/255/10 40/258/10 103/259/10 102/256/10
f 40/258/10 39/251/10 104/260/10 103/259/10
f 39/251/10 31/248/10 101/257/10 104/260/10
f 90/261/17 91/262/17 108/263/17 121/264/17 122/265/17
f 94/266/18 95/267/18 112/268/18 125/269/18 126/270/18
f 98/271/13 99/272/13 116/273/13 129/274/13 130/275/13
f 102/276/19 103/277/19 120/278/19 133/279/19 134/280/19
f 132/281/27 129/282/27 116/283/27 115/284/27
f 136/285/28 133/286/28 120/287/28 119/288/28
f 89/289/6 90/290/6 122/291/6 123/292/6
f 101/293/3 102/294/3 134/295/3 135/296/3
f 93/297/7 94/266/7 126/270/7 127/298/7
f 118/299/10 117/300/10 105/301/10 106/302/10 109/126/10 110/125/10 113/303/10 114/304/10
f 91/305/2 92/114/2 107/118/2 108/306/2
f 97/307/2 98/271/2 130/275/2 131/308/2
f 95/309/3 96/310/3 111/100/3 112/99/3
f 104/311/17 101/293/17 135/296/17 136/312/17 119/313/17
f 99/108/6 100/314/6 115/284/6 116/283/6
f 103/315/7 104/316/7 119/317/7 120/318/7
f 121/319/29 124/320/29 123/321/29 122/322/29
f 125/323/30 128/324/30 127/325/30 126/326/30
f 129/327/31 132/328/31 131/329/31 130/330/31
f 133/286/32 136/285/32 135/331/32 134/332/32
f 124/320/33 121/319/33 108/333/33 107/334/33
f 44/335/34 43/336/34 114/304/34 113/303/34
f 41/337/35 42/338/35 117/300/35 118/299/35
f 42/338/36 48/339/36 105/301/36 117/300/36
f 47/340/37 46/123/37 109/126/37 106/302/37
f 45/124/38 44/335/38 113/303/38 110/125/38
f 43/336/39 41/337/39 118/299/39 114/304/39
f 48/339/40 47/340/40 106/302/40 105/301/40
f 144/341/10 143/342/10 137/343/10 138/344/10
f 146/345/10 145/346/10 139/347/10 140/348/10
f 145/346/10 147/349/10 141/350/10 139/347/10
f 148/351/10 144/341/10 138/344/10 142/352/10
f 36/353/19 28/354/19 146/355/19 140/356/19
f 33/357/1 34/358/1 138/359/1 137/360/1
f 34/358/8 40/361/8 142/208/8 138/359/8
f 40/362/18 32/363/18 148/364/18 142/365/18
f 38/366/5 37/367/5 139/368/5 141/369/5
f 25/370/11 33/371/11 137/372/11 143/373/11
f 30/102/14 38/374/14 141/375/14 147/103/14
f 28/354/8 29/101/8 145/104/8 146/355/8
